<svg width="195" height="683" viewBox="0 0 195 683" fill="none" xmlns="http://www.w3.org/2000/svg">
<circle cx="110.195" cy="172.195" r="9.19497" fill="#605D5D" fill-opacity="0.17"/>
<circle cx="136.157" cy="172.195" r="9.19497" fill="#605D5D" fill-opacity="0.17"/>
<circle cx="110.195" cy="194.912" r="9.19497" fill="#605D5D" fill-opacity="0.17"/>
<circle cx="136.157" cy="194.912" r="9.19497" fill="#605D5D" fill-opacity="0.17"/>
<circle cx="110.195" cy="215.465" r="9.19497" fill="#605D5D" fill-opacity="0.17"/>
<circle cx="136.157" cy="215.465" r="9.19497" fill="#605D5D" fill-opacity="0.17"/>
<circle cx="110.195" cy="238.182" r="9.19497" fill="#605D5D" fill-opacity="0.17"/>
<circle cx="136.157" cy="238.182" r="9.19497" fill="#605D5D" fill-opacity="0.17"/>
<circle cx="110.195" cy="258.736" r="9.19497" fill="#605D5D" fill-opacity="0.17"/>
<circle cx="136.157" cy="258.736" r="9.19497" fill="#605D5D" fill-opacity="0.17"/>
<circle cx="110.195" cy="281.453" r="9.19497" fill="#605D5D" fill-opacity="0.17"/>
<circle cx="136.157" cy="281.453" r="9.19497" fill="#605D5D" fill-opacity="0.17"/>
<circle cx="110.195" cy="302.006" r="9.19497" fill="#605D5D" fill-opacity="0.17"/>
<circle cx="136.157" cy="302.006" r="9.19497" fill="#605D5D" fill-opacity="0.17"/>
<circle cx="110.195" cy="324.723" r="9.19497" fill="#605D5D" fill-opacity="0.17"/>
<circle cx="136.157" cy="324.723" r="9.19497" fill="#605D5D" fill-opacity="0.17"/>
<circle cx="158.874" cy="173.277" r="9.19497" fill="#605D5D" fill-opacity="0.17"/>
<circle cx="184.836" cy="173.277" r="9.19497" fill="#605D5D" fill-opacity="0.17"/>
<circle cx="158.874" cy="195.994" r="9.19497" fill="#605D5D" fill-opacity="0.17"/>
<circle cx="184.836" cy="195.994" r="9.19497" fill="#605D5D" fill-opacity="0.17"/>
<circle cx="158.874" cy="216.547" r="9.19497" fill="#605D5D" fill-opacity="0.17"/>
<circle cx="184.836" cy="216.547" r="9.19497" fill="#605D5D" fill-opacity="0.17"/>
<circle cx="158.874" cy="239.264" r="9.19497" fill="#605D5D" fill-opacity="0.17"/>
<circle cx="184.836" cy="239.264" r="9.19497" fill="#605D5D" fill-opacity="0.17"/>
<circle cx="158.874" cy="259.818" r="9.19497" fill="#605D5D" fill-opacity="0.17"/>
<circle cx="184.836" cy="259.818" r="9.19497" fill="#605D5D" fill-opacity="0.17"/>
<circle cx="158.874" cy="282.535" r="9.19497" fill="#605D5D" fill-opacity="0.17"/>
<circle cx="184.836" cy="282.535" r="9.19497" fill="#605D5D" fill-opacity="0.17"/>
<circle cx="158.874" cy="303.088" r="9.19497" fill="#605D5D" fill-opacity="0.17"/>
<circle cx="184.836" cy="303.088" r="9.19497" fill="#605D5D" fill-opacity="0.17"/>
<circle cx="158.874" cy="325.805" r="9.19497" fill="#605D5D" fill-opacity="0.17"/>
<circle cx="184.836" cy="325.805" r="9.19497" fill="#605D5D" fill-opacity="0.17"/>
<circle cx="9.19497" cy="170.195" r="9.19497" fill="#605D5D" fill-opacity="0.17"/>
<circle cx="35.1572" cy="170.195" r="9.19497" fill="#605D5D" fill-opacity="0.17"/>
<circle cx="9.19497" cy="192.912" r="9.19497" fill="#605D5D" fill-opacity="0.17"/>
<circle cx="35.1572" cy="192.912" r="9.19497" fill="#605D5D" fill-opacity="0.17"/>
<circle cx="9.19497" cy="213.465" r="9.19497" fill="#605D5D" fill-opacity="0.17"/>
<circle cx="35.1572" cy="213.465" r="9.19497" fill="#605D5D" fill-opacity="0.17"/>
<circle cx="9.19497" cy="236.182" r="9.19497" fill="#605D5D" fill-opacity="0.17"/>
<circle cx="35.1572" cy="236.182" r="9.19497" fill="#605D5D" fill-opacity="0.17"/>
<circle cx="9.19497" cy="256.736" r="9.19497" fill="#605D5D" fill-opacity="0.17"/>
<circle cx="35.1572" cy="256.736" r="9.19497" fill="#605D5D" fill-opacity="0.17"/>
<circle cx="9.19497" cy="279.453" r="9.19497" fill="#605D5D" fill-opacity="0.17"/>
<circle cx="35.1572" cy="279.453" r="9.19497" fill="#605D5D" fill-opacity="0.17"/>
<circle cx="9.19497" cy="300.006" r="9.19497" fill="#605D5D" fill-opacity="0.17"/>
<circle cx="35.1572" cy="300.006" r="9.19497" fill="#605D5D" fill-opacity="0.17"/>
<circle cx="9.19497" cy="322.723" r="9.19497" fill="#605D5D" fill-opacity="0.17"/>
<circle cx="35.1572" cy="322.723" r="9.19497" fill="#605D5D" fill-opacity="0.17"/>
<circle cx="57.8742" cy="171.277" r="9.19497" fill="#605D5D" fill-opacity="0.17"/>
<circle cx="83.8365" cy="171.277" r="9.19497" fill="#605D5D" fill-opacity="0.17"/>
<circle cx="57.8742" cy="193.994" r="9.19497" fill="#605D5D" fill-opacity="0.17"/>
<circle cx="83.8365" cy="193.994" r="9.19497" fill="#605D5D" fill-opacity="0.17"/>
<circle cx="57.8742" cy="214.547" r="9.19497" fill="#605D5D" fill-opacity="0.17"/>
<circle cx="83.8365" cy="214.547" r="9.19497" fill="#605D5D" fill-opacity="0.17"/>
<circle cx="57.8742" cy="237.264" r="9.19497" fill="#605D5D" fill-opacity="0.17"/>
<circle cx="83.8365" cy="237.264" r="9.19497" fill="#605D5D" fill-opacity="0.17"/>
<circle cx="57.8742" cy="257.818" r="9.19497" fill="#605D5D" fill-opacity="0.17"/>
<circle cx="83.8365" cy="257.818" r="9.19497" fill="#605D5D" fill-opacity="0.17"/>
<circle cx="57.8742" cy="280.535" r="9.19497" fill="#605D5D" fill-opacity="0.17"/>
<circle cx="83.8365" cy="280.535" r="9.19497" fill="#605D5D" fill-opacity="0.17"/>
<circle cx="57.8742" cy="301.088" r="9.19497" fill="#605D5D" fill-opacity="0.17"/>
<circle cx="83.8365" cy="301.088" r="9.19497" fill="#605D5D" fill-opacity="0.17"/>
<circle cx="57.8742" cy="323.805" r="9.19497" fill="#605D5D" fill-opacity="0.17"/>
<circle cx="83.8365" cy="323.805" r="9.19497" fill="#605D5D" fill-opacity="0.17"/>
<circle cx="110.195" cy="-1.80503" r="9.19497" fill="#605D5D" fill-opacity="0.17"/>
<circle cx="136.157" cy="-1.80503" r="9.19497" fill="#605D5D" fill-opacity="0.17"/>
<circle cx="110.195" cy="20.9119" r="9.19497" fill="#605D5D" fill-opacity="0.17"/>
<circle cx="136.157" cy="20.9119" r="9.19497" fill="#605D5D" fill-opacity="0.17"/>
<circle cx="110.195" cy="41.4654" r="9.19497" fill="#605D5D" fill-opacity="0.17"/>
<circle cx="136.157" cy="41.4654" r="9.19497" fill="#605D5D" fill-opacity="0.17"/>
<circle cx="110.195" cy="64.1824" r="9.19497" fill="#605D5D" fill-opacity="0.17"/>
<circle cx="136.157" cy="64.1824" r="9.19497" fill="#605D5D" fill-opacity="0.17"/>
<circle cx="110.195" cy="84.7359" r="9.19497" fill="#605D5D" fill-opacity="0.17"/>
<circle cx="136.157" cy="84.7359" r="9.19497" fill="#605D5D" fill-opacity="0.17"/>
<circle cx="110.195" cy="107.453" r="9.19497" fill="#605D5D" fill-opacity="0.17"/>
<circle cx="136.157" cy="107.453" r="9.19497" fill="#605D5D" fill-opacity="0.17"/>
<circle cx="110.195" cy="128.006" r="9.19497" fill="#605D5D" fill-opacity="0.17"/>
<circle cx="136.157" cy="128.006" r="9.19497" fill="#605D5D" fill-opacity="0.17"/>
<circle cx="110.195" cy="150.723" r="9.19497" fill="#605D5D" fill-opacity="0.17"/>
<circle cx="136.157" cy="150.723" r="9.19497" fill="#605D5D" fill-opacity="0.17"/>
<circle cx="158.874" cy="-0.723245" r="9.19497" fill="#605D5D" fill-opacity="0.17"/>
<circle cx="184.836" cy="-0.723245" r="9.19497" fill="#605D5D" fill-opacity="0.17"/>
<circle cx="158.874" cy="21.9937" r="9.19497" fill="#605D5D" fill-opacity="0.17"/>
<circle cx="184.836" cy="21.9937" r="9.19497" fill="#605D5D" fill-opacity="0.17"/>
<circle cx="158.874" cy="42.5471" r="9.19497" fill="#605D5D" fill-opacity="0.17"/>
<circle cx="184.836" cy="42.5471" r="9.19497" fill="#605D5D" fill-opacity="0.17"/>
<circle cx="158.874" cy="65.2641" r="9.19497" fill="#605D5D" fill-opacity="0.17"/>
<circle cx="184.836" cy="65.2641" r="9.19497" fill="#605D5D" fill-opacity="0.17"/>
<circle cx="158.874" cy="85.8176" r="9.19497" fill="#605D5D" fill-opacity="0.17"/>
<circle cx="184.836" cy="85.8176" r="9.19497" fill="#605D5D" fill-opacity="0.17"/>
<circle cx="158.874" cy="108.535" r="9.19497" fill="#605D5D" fill-opacity="0.17"/>
<circle cx="184.836" cy="108.535" r="9.19497" fill="#605D5D" fill-opacity="0.17"/>
<circle cx="158.874" cy="129.088" r="9.19497" fill="#605D5D" fill-opacity="0.17"/>
<circle cx="184.836" cy="129.088" r="9.19497" fill="#605D5D" fill-opacity="0.17"/>
<circle cx="158.874" cy="151.805" r="9.19497" fill="#605D5D" fill-opacity="0.17"/>
<circle cx="184.836" cy="151.805" r="9.19497" fill="#605D5D" fill-opacity="0.17"/>
<circle cx="9.19497" cy="-3.80503" r="9.19497" fill="#605D5D" fill-opacity="0.17"/>
<circle cx="35.1572" cy="-3.80503" r="9.19497" fill="#605D5D" fill-opacity="0.17"/>
<circle cx="9.19497" cy="18.9119" r="9.19497" fill="#605D5D" fill-opacity="0.17"/>
<circle cx="35.1572" cy="18.9119" r="9.19497" fill="#605D5D" fill-opacity="0.17"/>
<circle cx="9.19497" cy="39.4654" r="9.19497" fill="#605D5D" fill-opacity="0.17"/>
<circle cx="35.1572" cy="39.4654" r="9.19497" fill="#605D5D" fill-opacity="0.17"/>
<circle cx="9.19497" cy="62.1824" r="9.19497" fill="#605D5D" fill-opacity="0.17"/>
<circle cx="35.1572" cy="62.1824" r="9.19497" fill="#605D5D" fill-opacity="0.17"/>
<circle cx="9.19497" cy="82.7359" r="9.19497" fill="#605D5D" fill-opacity="0.17"/>
<circle cx="35.1572" cy="82.7359" r="9.19497" fill="#605D5D" fill-opacity="0.17"/>
<circle cx="9.19497" cy="105.453" r="9.19497" fill="#605D5D" fill-opacity="0.17"/>
<circle cx="35.1572" cy="105.453" r="9.19497" fill="#605D5D" fill-opacity="0.17"/>
<circle cx="9.19497" cy="126.006" r="9.19497" fill="#605D5D" fill-opacity="0.17"/>
<circle cx="35.1572" cy="126.006" r="9.19497" fill="#605D5D" fill-opacity="0.17"/>
<circle cx="9.19497" cy="148.723" r="9.19497" fill="#605D5D" fill-opacity="0.17"/>
<circle cx="35.1572" cy="148.723" r="9.19497" fill="#605D5D" fill-opacity="0.17"/>
<circle cx="57.8742" cy="-2.72324" r="9.19497" fill="#605D5D" fill-opacity="0.17"/>
<circle cx="83.8365" cy="-2.72324" r="9.19497" fill="#605D5D" fill-opacity="0.17"/>
<circle cx="57.8742" cy="19.9937" r="9.19497" fill="#605D5D" fill-opacity="0.17"/>
<circle cx="83.8365" cy="19.9937" r="9.19497" fill="#605D5D" fill-opacity="0.17"/>
<circle cx="57.8742" cy="40.5471" r="9.19497" fill="#605D5D" fill-opacity="0.17"/>
<circle cx="83.8365" cy="40.5471" r="9.19497" fill="#605D5D" fill-opacity="0.17"/>
<circle cx="57.8742" cy="63.2641" r="9.19497" fill="#605D5D" fill-opacity="0.17"/>
<circle cx="83.8365" cy="63.2641" r="9.19497" fill="#605D5D" fill-opacity="0.17"/>
<circle cx="57.8742" cy="83.8176" r="9.19497" fill="#605D5D" fill-opacity="0.17"/>
<circle cx="83.8365" cy="83.8176" r="9.19497" fill="#605D5D" fill-opacity="0.17"/>
<circle cx="57.8742" cy="106.535" r="9.19497" fill="#605D5D" fill-opacity="0.17"/>
<circle cx="83.8365" cy="106.535" r="9.19497" fill="#605D5D" fill-opacity="0.17"/>
<circle cx="57.8742" cy="127.088" r="9.19497" fill="#605D5D" fill-opacity="0.17"/>
<circle cx="83.8365" cy="127.088" r="9.19497" fill="#605D5D" fill-opacity="0.17"/>
<circle cx="57.8742" cy="149.805" r="9.19497" fill="#605D5D" fill-opacity="0.17"/>
<circle cx="83.8365" cy="149.805" r="9.19497" fill="#605D5D" fill-opacity="0.17"/>
<circle cx="110.195" cy="520.195" r="9.19497" fill="#605D5D" fill-opacity="0.17"/>
<circle cx="136.157" cy="520.195" r="9.19497" fill="#605D5D" fill-opacity="0.17"/>
<circle cx="110.195" cy="542.912" r="9.19497" fill="#605D5D" fill-opacity="0.17"/>
<circle cx="136.157" cy="542.912" r="9.19497" fill="#605D5D" fill-opacity="0.17"/>
<circle cx="110.195" cy="563.465" r="9.19497" fill="#605D5D" fill-opacity="0.17"/>
<circle cx="136.157" cy="563.465" r="9.19497" fill="#605D5D" fill-opacity="0.17"/>
<circle cx="110.195" cy="586.182" r="9.19497" fill="#605D5D" fill-opacity="0.17"/>
<circle cx="136.157" cy="586.182" r="9.19497" fill="#605D5D" fill-opacity="0.17"/>
<circle cx="110.195" cy="606.736" r="9.19497" fill="#605D5D" fill-opacity="0.17"/>
<circle cx="136.157" cy="606.736" r="9.19497" fill="#605D5D" fill-opacity="0.17"/>
<circle cx="110.195" cy="629.453" r="9.19497" fill="#605D5D" fill-opacity="0.17"/>
<circle cx="136.157" cy="629.453" r="9.19497" fill="#605D5D" fill-opacity="0.17"/>
<circle cx="110.195" cy="650.006" r="9.19497" fill="#605D5D" fill-opacity="0.17"/>
<circle cx="136.157" cy="650.006" r="9.19497" fill="#605D5D" fill-opacity="0.17"/>
<circle cx="110.195" cy="672.723" r="9.19497" fill="#605D5D" fill-opacity="0.17"/>
<circle cx="136.157" cy="672.723" r="9.19497" fill="#605D5D" fill-opacity="0.17"/>
<circle cx="158.874" cy="521.277" r="9.19497" fill="#605D5D" fill-opacity="0.17"/>
<circle cx="184.836" cy="521.277" r="9.19497" fill="#605D5D" fill-opacity="0.17"/>
<circle cx="158.874" cy="543.994" r="9.19497" fill="#605D5D" fill-opacity="0.17"/>
<circle cx="184.836" cy="543.994" r="9.19497" fill="#605D5D" fill-opacity="0.17"/>
<circle cx="158.874" cy="564.547" r="9.19497" fill="#605D5D" fill-opacity="0.17"/>
<circle cx="184.836" cy="564.547" r="9.19497" fill="#605D5D" fill-opacity="0.17"/>
<circle cx="158.874" cy="587.264" r="9.19497" fill="#605D5D" fill-opacity="0.17"/>
<circle cx="184.836" cy="587.264" r="9.19497" fill="#605D5D" fill-opacity="0.17"/>
<circle cx="158.874" cy="607.818" r="9.19497" fill="#605D5D" fill-opacity="0.17"/>
<circle cx="184.836" cy="607.818" r="9.19497" fill="#605D5D" fill-opacity="0.17"/>
<circle cx="158.874" cy="630.535" r="9.19497" fill="#605D5D" fill-opacity="0.17"/>
<circle cx="184.836" cy="630.535" r="9.19497" fill="#605D5D" fill-opacity="0.17"/>
<circle cx="158.874" cy="651.088" r="9.19497" fill="#605D5D" fill-opacity="0.17"/>
<circle cx="184.836" cy="651.088" r="9.19497" fill="#605D5D" fill-opacity="0.17"/>
<circle cx="158.874" cy="673.805" r="9.19497" fill="#605D5D" fill-opacity="0.17"/>
<circle cx="184.836" cy="673.805" r="9.19497" fill="#605D5D" fill-opacity="0.17"/>
<circle cx="9.19497" cy="518.195" r="9.19497" fill="#605D5D" fill-opacity="0.17"/>
<circle cx="35.1572" cy="518.195" r="9.19497" fill="#605D5D" fill-opacity="0.17"/>
<circle cx="9.19497" cy="540.912" r="9.19497" fill="#605D5D" fill-opacity="0.17"/>
<circle cx="35.1572" cy="540.912" r="9.19497" fill="#605D5D" fill-opacity="0.17"/>
<circle cx="9.19497" cy="561.465" r="9.19497" fill="#605D5D" fill-opacity="0.17"/>
<circle cx="35.1572" cy="561.465" r="9.19497" fill="#605D5D" fill-opacity="0.17"/>
<circle cx="9.19497" cy="584.182" r="9.19497" fill="#605D5D" fill-opacity="0.17"/>
<circle cx="35.1572" cy="584.182" r="9.19497" fill="#605D5D" fill-opacity="0.17"/>
<circle cx="9.19497" cy="604.736" r="9.19497" fill="#605D5D" fill-opacity="0.17"/>
<circle cx="35.1572" cy="604.736" r="9.19497" fill="#605D5D" fill-opacity="0.17"/>
<circle cx="9.19497" cy="627.453" r="9.19497" fill="#605D5D" fill-opacity="0.17"/>
<circle cx="35.1572" cy="627.453" r="9.19497" fill="#605D5D" fill-opacity="0.17"/>
<circle cx="9.19497" cy="648.006" r="9.19497" fill="#605D5D" fill-opacity="0.17"/>
<circle cx="35.1572" cy="648.006" r="9.19497" fill="#605D5D" fill-opacity="0.17"/>
<circle cx="9.19497" cy="670.723" r="9.19497" fill="#605D5D" fill-opacity="0.17"/>
<circle cx="35.1572" cy="670.723" r="9.19497" fill="#605D5D" fill-opacity="0.17"/>
<circle cx="57.8742" cy="519.277" r="9.19497" fill="#605D5D" fill-opacity="0.17"/>
<circle cx="83.8365" cy="519.277" r="9.19497" fill="#605D5D" fill-opacity="0.17"/>
<circle cx="57.8742" cy="541.994" r="9.19497" fill="#605D5D" fill-opacity="0.17"/>
<circle cx="83.8365" cy="541.994" r="9.19497" fill="#605D5D" fill-opacity="0.17"/>
<circle cx="57.8742" cy="562.547" r="9.19497" fill="#605D5D" fill-opacity="0.17"/>
<circle cx="83.8365" cy="562.547" r="9.19497" fill="#605D5D" fill-opacity="0.17"/>
<circle cx="57.8742" cy="585.264" r="9.19497" fill="#605D5D" fill-opacity="0.17"/>
<circle cx="83.8365" cy="585.264" r="9.19497" fill="#605D5D" fill-opacity="0.17"/>
<circle cx="57.8742" cy="605.818" r="9.19497" fill="#605D5D" fill-opacity="0.17"/>
<circle cx="83.8365" cy="605.818" r="9.19497" fill="#605D5D" fill-opacity="0.17"/>
<circle cx="57.8742" cy="628.535" r="9.19497" fill="#605D5D" fill-opacity="0.17"/>
<circle cx="83.8365" cy="628.535" r="9.19497" fill="#605D5D" fill-opacity="0.17"/>
<circle cx="57.8742" cy="649.088" r="9.19497" fill="#605D5D" fill-opacity="0.17"/>
<circle cx="83.8365" cy="649.088" r="9.19497" fill="#605D5D" fill-opacity="0.17"/>
<circle cx="57.8742" cy="671.805" r="9.19497" fill="#605D5D" fill-opacity="0.17"/>
<circle cx="83.8365" cy="671.805" r="9.19497" fill="#605D5D" fill-opacity="0.17"/>
<circle cx="110.195" cy="346.195" r="9.19497" fill="#605D5D" fill-opacity="0.17"/>
<circle cx="136.157" cy="346.195" r="9.19497" fill="#605D5D" fill-opacity="0.17"/>
<circle cx="110.195" cy="368.912" r="9.19497" fill="#605D5D" fill-opacity="0.17"/>
<circle cx="136.157" cy="368.912" r="9.19497" fill="#605D5D" fill-opacity="0.17"/>
<circle cx="110.195" cy="389.465" r="9.19497" fill="#605D5D" fill-opacity="0.17"/>
<circle cx="136.157" cy="389.465" r="9.19497" fill="#605D5D" fill-opacity="0.17"/>
<circle cx="110.195" cy="412.182" r="9.19497" fill="#605D5D" fill-opacity="0.17"/>
<circle cx="136.157" cy="412.182" r="9.19497" fill="#605D5D" fill-opacity="0.17"/>
<circle cx="110.195" cy="432.736" r="9.19497" fill="#605D5D" fill-opacity="0.17"/>
<circle cx="136.157" cy="432.736" r="9.19497" fill="#605D5D" fill-opacity="0.17"/>
<circle cx="110.195" cy="455.453" r="9.19497" fill="#605D5D" fill-opacity="0.17"/>
<circle cx="136.157" cy="455.453" r="9.19497" fill="#605D5D" fill-opacity="0.17"/>
<circle cx="110.195" cy="476.006" r="9.19497" fill="#605D5D" fill-opacity="0.17"/>
<circle cx="136.157" cy="476.006" r="9.19497" fill="#605D5D" fill-opacity="0.17"/>
<circle cx="110.195" cy="498.723" r="9.19497" fill="#605D5D" fill-opacity="0.17"/>
<circle cx="136.157" cy="498.723" r="9.19497" fill="#605D5D" fill-opacity="0.17"/>
<circle cx="158.874" cy="347.277" r="9.19497" fill="#605D5D" fill-opacity="0.17"/>
<circle cx="184.836" cy="347.277" r="9.19497" fill="#605D5D" fill-opacity="0.17"/>
<circle cx="158.874" cy="369.994" r="9.19497" fill="#605D5D" fill-opacity="0.17"/>
<circle cx="184.836" cy="369.994" r="9.19497" fill="#605D5D" fill-opacity="0.17"/>
<circle cx="158.874" cy="390.547" r="9.19497" fill="#605D5D" fill-opacity="0.17"/>
<circle cx="184.836" cy="390.547" r="9.19497" fill="#605D5D" fill-opacity="0.17"/>
<circle cx="158.874" cy="413.264" r="9.19497" fill="#605D5D" fill-opacity="0.17"/>
<circle cx="184.836" cy="413.264" r="9.19497" fill="#605D5D" fill-opacity="0.17"/>
<circle cx="158.874" cy="433.818" r="9.19497" fill="#605D5D" fill-opacity="0.17"/>
<circle cx="184.836" cy="433.818" r="9.19497" fill="#605D5D" fill-opacity="0.17"/>
<circle cx="158.874" cy="456.535" r="9.19497" fill="#605D5D" fill-opacity="0.17"/>
<circle cx="184.836" cy="456.535" r="9.19497" fill="#605D5D" fill-opacity="0.17"/>
<circle cx="158.874" cy="477.088" r="9.19497" fill="#605D5D" fill-opacity="0.17"/>
<circle cx="184.836" cy="477.088" r="9.19497" fill="#605D5D" fill-opacity="0.17"/>
<circle cx="158.874" cy="499.805" r="9.19497" fill="#605D5D" fill-opacity="0.17"/>
<circle cx="184.836" cy="499.805" r="9.19497" fill="#605D5D" fill-opacity="0.17"/>
<circle cx="9.19497" cy="344.195" r="9.19497" fill="#605D5D" fill-opacity="0.17"/>
<circle cx="35.1572" cy="344.195" r="9.19497" fill="#605D5D" fill-opacity="0.17"/>
<circle cx="9.19497" cy="366.912" r="9.19497" fill="#605D5D" fill-opacity="0.17"/>
<circle cx="35.1572" cy="366.912" r="9.19497" fill="#605D5D" fill-opacity="0.17"/>
<circle cx="9.19497" cy="387.465" r="9.19497" fill="#605D5D" fill-opacity="0.17"/>
<circle cx="35.1572" cy="387.465" r="9.19497" fill="#605D5D" fill-opacity="0.17"/>
<circle cx="9.19497" cy="410.182" r="9.19497" fill="#605D5D" fill-opacity="0.17"/>
<circle cx="35.1572" cy="410.182" r="9.19497" fill="#605D5D" fill-opacity="0.17"/>
<circle cx="9.19497" cy="430.736" r="9.19497" fill="#605D5D" fill-opacity="0.17"/>
<circle cx="35.1572" cy="430.736" r="9.19497" fill="#605D5D" fill-opacity="0.17"/>
<circle cx="9.19497" cy="453.453" r="9.19497" fill="#605D5D" fill-opacity="0.17"/>
<circle cx="35.1572" cy="453.453" r="9.19497" fill="#605D5D" fill-opacity="0.17"/>
<circle cx="9.19497" cy="474.006" r="9.19497" fill="#605D5D" fill-opacity="0.17"/>
<circle cx="35.1572" cy="474.006" r="9.19497" fill="#605D5D" fill-opacity="0.17"/>
<circle cx="9.19497" cy="496.723" r="9.19497" fill="#605D5D" fill-opacity="0.17"/>
<circle cx="35.1572" cy="496.723" r="9.19497" fill="#605D5D" fill-opacity="0.17"/>
<circle cx="57.8742" cy="345.277" r="9.19497" fill="#605D5D" fill-opacity="0.17"/>
<circle cx="83.8365" cy="345.277" r="9.19497" fill="#605D5D" fill-opacity="0.17"/>
<circle cx="57.8742" cy="367.994" r="9.19497" fill="#605D5D" fill-opacity="0.17"/>
<circle cx="83.8365" cy="367.994" r="9.19497" fill="#605D5D" fill-opacity="0.17"/>
<circle cx="57.8742" cy="388.547" r="9.19497" fill="#605D5D" fill-opacity="0.17"/>
<circle cx="83.8365" cy="388.547" r="9.19497" fill="#605D5D" fill-opacity="0.17"/>
<circle cx="57.8742" cy="411.264" r="9.19497" fill="#605D5D" fill-opacity="0.17"/>
<circle cx="83.8365" cy="411.264" r="9.19497" fill="#605D5D" fill-opacity="0.17"/>
<circle cx="57.8742" cy="431.818" r="9.19497" fill="#605D5D" fill-opacity="0.17"/>
<circle cx="83.8365" cy="431.818" r="9.19497" fill="#605D5D" fill-opacity="0.17"/>
<circle cx="57.8742" cy="454.535" r="9.19497" fill="#605D5D" fill-opacity="0.17"/>
<circle cx="83.8365" cy="454.535" r="9.19497" fill="#605D5D" fill-opacity="0.17"/>
<circle cx="57.8742" cy="475.088" r="9.19497" fill="#605D5D" fill-opacity="0.17"/>
<circle cx="83.8365" cy="475.088" r="9.19497" fill="#605D5D" fill-opacity="0.17"/>
<circle cx="57.8742" cy="497.805" r="9.19497" fill="#605D5D" fill-opacity="0.17"/>
<circle cx="83.8365" cy="497.805" r="9.19497" fill="#605D5D" fill-opacity="0.17"/>
</svg>
